<svg xmlns="http://www.w3.org/2000/svg" xmlns:xlink="http://www.w3.org/1999/xlink" id="body_10" preserveAspectRatio="xMinYMin meet" viewBox="0 0 793 1123"><defs><clipPath id="1"><path id="" clip-rule="evenodd" transform="matrix(1 0 0 1 0 0)" d="M0 842L0 0L0 0L595 0L595 0L595 842L595 842L0 842z" /></clipPath><clipPath id="2"><path id="" clip-rule="evenodd" transform="matrix(1 0 0 1 0 0)" d="M0 0L595 0L595 0L595 842L595 842L0 842z" /></clipPath><clipPath id="3"><path id="" clip-rule="evenodd" transform="matrix(1 0 0 1 0 0)" d="M509 791L526 791L526 791L526 807.3L526 807.3L509 807.3z" /></clipPath><clipPath id="4"><path id="" clip-rule="evenodd" transform="matrix(1 0 0 1 0 0)" d="M0 0L595 0L595 0L595 842L595 842L0 842z" /></clipPath></defs><g transform="matrix(1.333333 0 0 1.333333 0 0)"><g clip-path="url(#1)"><g clip-path="url(#2)"><g clip-path="url(#3)"></g></g><g clip-path="url(#4)"><path id="8" transform="matrix(1 0 0 -1 0 842)" d="M297.7 758.85L334.05 758.85" stroke="#000000" stroke-width="2.16" fill="none" /><path id="14" transform="matrix(1 0 0 -1 0 842)" d="M297.6 736.2L334.2 736.2" stroke="#000000" stroke-width="2.16" fill="none" /><path id="338" transform="matrix(1 0 0 -1 0 842)" d="M297.1 598.9L333.45 598.9" stroke="#000000" stroke-width="2.16" fill="none" /><path id="348" transform="matrix(1 0 0 -1 0 842)" d="M283.2 576L347.6 576" stroke="#000000" stroke-width="2.16" fill="none" /><path id="858" transform="matrix(1 0 0 -1 0 842)" d="M297.1 369.95L333.45 369.95" stroke="#000000" stroke-width="2.16" fill="none" /><path id="868" transform="matrix(1 0 0 -1 0 842)" d="M282.2 346.9L349.9 346.9" stroke="#000000" stroke-width="2.16" fill="none" /><path id="1366" transform="matrix(1 0 0 -1 0 842)" d="M297 150.2L333.35 150.2" stroke="#000000" stroke-width="2.16" fill="none" /><path id="1395" transform="matrix(1 0 0 -1 0 842)" d="M210.95 128.25L419.4 128.25" stroke="#000000" stroke-width="2.16" fill="none" /></g></g></g></svg>