<svg xmlns="http://www.w3.org/2000/svg" xmlns:xlink="http://www.w3.org/1999/xlink" id="body_5" preserveAspectRatio="xMinYMin meet" viewBox="0 0 793 1123"><defs><clipPath id="1"><path id="" clip-rule="evenodd" transform="matrix(1 0 0 1 0 0)" d="M0 842L0 0L0 0L595 0L595 0L595 842L595 842L0 842z" /></clipPath><clipPath id="2"><path id="" clip-rule="evenodd" transform="matrix(1 0 0 1 0 0)" d="M0 0L595 0L595 0L595 842L595 842L0 842z" /></clipPath><clipPath id="3"><path id="" clip-rule="evenodd" transform="matrix(1 0 0 1 0 0)" d="M509 791L526 791L526 791L526 807.3L526 807.3L509 807.3z" /></clipPath><clipPath id="4"><path id="" clip-rule="evenodd" transform="matrix(1 0 0 1 0 0)" d="M0 0L595 0L595 0L595 842L595 842L0 842z" /></clipPath></defs><g transform="matrix(1.333333 0 0 1.333333 0 0)"><g clip-path="url(#1)"><g clip-path="url(#2)"><g clip-path="url(#3)"></g></g><g clip-path="url(#4)"><path id="329" transform="matrix(1 0 0 -1 0 842)" d="M282 589.3L312.8 589.3" stroke="#000000" stroke-width="2.16" fill="none" /><path id="343" transform="matrix(1 0 0 -1 0 842)" d="M245.15 566.25L349.3 566.25" stroke="#000000" stroke-width="2.16" fill="none" /><path id="1475" transform="matrix(1 0 0 -1 0 842)" d="M300 126.1L330.8 126.1" stroke="#000000" stroke-width="2.16" fill="none" /><path id="1495" transform="matrix(1 0 0 -1 0 842)" d="M243 101L390 101" stroke="#000000" stroke-width="2.16" fill="none" /></g></g></g></svg>