<svg xmlns="http://www.w3.org/2000/svg" xmlns:xlink="http://www.w3.org/1999/xlink" id="body_18" preserveAspectRatio="xMinYMin meet" viewBox="0 0 696 1008"><defs><clipPath id="1"><path id="" clip-rule="evenodd" transform="matrix(1 0 0 1 0 0)" d="M0 756L0 0L0 0L522 0L522 0L522 756L522 756L0 756z" /></clipPath><clipPath id="2"><path id="" clip-rule="evenodd" transform="matrix(1 0 0 1 0 0)" d="M-3.0518E-05 177.12L521.9999 177.12L521.9999 177.12L521.9999 72L521.9999 72L-3.0518E-05 72z" /></clipPath><clipPath id="3"><path id="" clip-rule="evenodd" transform="matrix(1 0 0 1 0 0)" d="M-7.629E-06 378.36L522 378.36L522 378.36L522 177.12L522 177.12L-7.629E-06 177.12z" /></clipPath><clipPath id="4"><path id="" clip-rule="evenodd" transform="matrix(1 0 0 1 0 0)" d="M-7.629E-06 578.76L522 578.76L522 578.76L522 406.56L522 406.56L-7.629E-06 406.56z" /></clipPath></defs><g transform="matrix(1.333333 0 0 1.333333 0 0)"><g clip-path="url(#1)"><g clip-path="url(#2)"><g transform="matrix(0.6756397 0 0 0.6756411 375 92.14001)"><g transform="matrix(1 0 0 1 0 0)"><image x="0" y="0" xlink:href="img_39.png" width="111" height="39" /></g></g></g><g clip-path="url(#3)"><g transform="matrix(0.7509151 0 0 0.7524194 72 177.09)"><g transform="matrix(1 0 0 1 0 0)"><image x="0" y="0" xlink:href="img_40.png" width="601" height="248" /></g></g></g><g clip-path="url(#4)"><g transform="matrix(0.75 0 0 0.75 72 406.55)"><g transform="matrix(1 0 0 1 0 0)"><image x="0" y="0" xlink:href="img_41.png" width="365" height="209" /></g></g></g></g></g></svg>