<svg xmlns="http://www.w3.org/2000/svg" xmlns:xlink="http://www.w3.org/1999/xlink" id="body_20" preserveAspectRatio="xMinYMin meet" viewBox="0 0 696 1008"><defs><clipPath id="1"><path id="" clip-rule="evenodd" transform="matrix(1 0 0 1 0 0)" d="M0 756L0 0L0 0L522 0L522 0L522 756L522 756L0 756z" /></clipPath><clipPath id="2"><path id="" clip-rule="evenodd" transform="matrix(1 0 0 1 0 0)" d="M-7.629E-06 170.76L522 170.76L522 170.76L522 72L522 72L-7.629E-06 72z" /></clipPath><clipPath id="3"><path id="" clip-rule="evenodd" transform="matrix(1 0 0 1 0 0)" d="M-7.629E-06 331.44L522 331.44L522 331.44L522 280.8L522 280.8L-7.629E-06 280.8z" /></clipPath><clipPath id="4"><path id="" clip-rule="evenodd" transform="matrix(1 0 0 1 0 0)" d="M-7.629E-06 608.52L522 608.52L522 608.52L522 516.6L522 516.6L-7.629E-06 516.6z" /></clipPath></defs><g transform="matrix(1.333333 0 0 1.333333 0 0)"><g clip-path="url(#1)"><g clip-path="url(#2)"><g transform="matrix(0.75 0 0 0.75 72 72)"><g transform="matrix(1 0 0 1 0 0)"><image x="0" y="0" xlink:href="img_46.png" width="312" height="111" /></g></g></g><g clip-path="url(#3)"><g transform="matrix(0.75 0 0 0.75 72 280.77)"><g transform="matrix(1 0 0 1 0 0)"><image x="0" y="0" xlink:href="img_47.png" width="159" height="48" /></g></g></g><g clip-path="url(#4)"><g transform="matrix(0.5676729 0 0 0.567647 72 516.62)"><g transform="matrix(1 0 0 1 0 0)"><image x="0" y="0" xlink:href="img_48.png" width="795" height="136" /></g></g></g></g></g></svg>