<svg xmlns="http://www.w3.org/2000/svg" xmlns:xlink="http://www.w3.org/1999/xlink" id="body_11" preserveAspectRatio="xMinYMin meet" viewBox="0 0 696 1008"><defs><clipPath id="1"><path id="" clip-rule="evenodd" transform="matrix(1 0 0 1 0 0)" d="M0 756L0 0L0 0L522 0L522 0L522 756L522 756L0 756z" /></clipPath><clipPath id="2"><path id="" clip-rule="evenodd" transform="matrix(1 0 0 1 0 0)" d="M-1.5259E-05 172.32L522 172.32L522 172.32L522 72L522 72L-1.5259E-05 72z" /></clipPath><clipPath id="3"><path id="" clip-rule="evenodd" transform="matrix(1 0 0 1 0 0)" d="M-7.629E-06 520.8L522 520.8L522 520.8L522 172.32L522 172.32L-7.629E-06 172.32z" /></clipPath><clipPath id="4"><path id="" clip-rule="evenodd" transform="matrix(1 0 0 1 0 0)" d="M-1.5259E-05 674.64L522 674.64L522 674.64L522 520.8L522 520.8L-1.5259E-05 520.8z" /></clipPath></defs><g transform="matrix(1.333333 0 0 1.333333 0 0)"><g clip-path="url(#1)"><g clip-path="url(#2)"><g transform="matrix(0.75 0 0 0.75 108 72)"><g transform="matrix(1 0 0 1 0 0)"><image x="0" y="0" xlink:href="img_21.png" width="372" height="98" /></g></g></g><g clip-path="url(#3)"><g transform="matrix(0.6676036 0 0 0.667658 108 193.08)"><g transform="matrix(1 0 0 1 0 0)"><image x="0" y="0" xlink:href="img_22.png" width="676" height="269" /></g></g></g><g clip-path="url(#4)"><g transform="matrix(0.75 0 0 0.75 108 541.51)"><g transform="matrix(1 0 0 1 0 0)"><image x="0" y="0" xlink:href="img_23.png" width="417" height="88" /></g></g></g></g></g></svg>