<svg xmlns="http://www.w3.org/2000/svg" xmlns:xlink="http://www.w3.org/1999/xlink" id="body_9" preserveAspectRatio="xMinYMin meet" viewBox="0 0 696 1008"><defs><clipPath id="1"><path id="" clip-rule="evenodd" transform="matrix(1 0 0 1 0 0)" d="M0 756L0 0L0 0L522 0L522 0L522 756L522 756L0 756z" /></clipPath><clipPath id="2"><path id="" clip-rule="evenodd" transform="matrix(1 0 0 1 0 0)" d="M-1.5259E-05 383.76L522 383.76L522 383.76L522 72L522 72L-1.5259E-05 72z" /></clipPath><clipPath id="3"><path id="" clip-rule="evenodd" transform="matrix(1 0 0 1 0 0)" d="M-1.5259E-05 465.48L522 465.48L522 465.48L522 383.76L522 383.76L-1.5259E-05 383.76z" /></clipPath><clipPath id="4"><path id="" clip-rule="evenodd" transform="matrix(1 0 0 1 0 0)" d="M-1.5259E-05 672.72L522 672.72L522 672.72L522 485.64L522 485.64L-1.5259E-05 485.64z" /></clipPath></defs><g transform="matrix(1.333333 0 0 1.333333 0 0)"><g clip-path="url(#1)"><g clip-path="url(#2)"><g transform="matrix(0.75 0 0 0.7499999 108 92.72998)"><g transform="matrix(1 0 0 1 0 0)"><image x="0" y="0" xlink:href="img_14.png" width="390" height="218" /></g></g></g><g clip-path="url(#3)"><g transform="matrix(0.75 0 0 0.75 108 383.79)"><g transform="matrix(1 0 0 1 0 0)"><image x="0" y="0" xlink:href="img_15.png" width="308" height="99" /></g></g></g><g clip-path="url(#4)"><g transform="matrix(0.75 0 0 0.75 108 506.37)"><g transform="matrix(1 0 0 1 0 0)"><image x="0" y="0" xlink:href="img_16.png" width="305" height="185" /></g></g></g></g></g></svg>