<svg xmlns="http://www.w3.org/2000/svg" xmlns:xlink="http://www.w3.org/1999/xlink" id="body_6" preserveAspectRatio="xMinYMin meet" viewBox="0 0 696 1008"><defs><clipPath id="1"><path id="" clip-rule="evenodd" transform="matrix(1 0 0 1 0 0)" d="M0 756L0 0L0 0L522 0L522 0L522 756L522 756L0 756z" /></clipPath><clipPath id="2"><path id="" clip-rule="evenodd" transform="matrix(1 0 0 1 0 0)" d="M-3.0518E-05 689.04L521.9999 689.04L521.9999 689.04L521.9999 572.76L521.9999 572.76L-3.0518E-05 572.76z" /></clipPath><clipPath id="3"><path id="" clip-rule="evenodd" transform="matrix(1 0 0 1 0 0)" d="M0 689.04L522 689.04L522 689.04L522 572.76L522 572.76L0 572.76z" /></clipPath></defs><g transform="matrix(1.333333 0 0 1.333333 0 0)"><g clip-path="url(#1)"><g clip-path="url(#2)"><g transform="matrix(0.75 0 0 0.75 288.96 633.17)"><g transform="matrix(1 0 0 1 0 0)"><image x="0" y="0" xlink:href="img_08.png" width="25" height="20" /></g></g></g><g clip-path="url(#3)"><g transform="matrix(0.75 0 0 0.75 414.16 657.843)"><g transform="matrix(1 0 0 1 0 0)"><image x="0" y="0" xlink:href="img_09.png" width="24" height="17" /></g></g></g></g></g></svg>