<svg xmlns="http://www.w3.org/2000/svg" xmlns:xlink="http://www.w3.org/1999/xlink" id="body_23" preserveAspectRatio="xMinYMin meet" viewBox="0 0 696 1008"><defs><clipPath id="1"><path id="" clip-rule="evenodd" transform="matrix(1 0 0 1 0 0)" d="M0 756L0 0L0 0L522 0L522 0L522 756L522 756L0 756z" /></clipPath></defs><g transform="matrix(1.333333 0 0 1.333333 0 0)"><g clip-path="url(#1)"><path id="35" transform="matrix(1 0 0 -1 0 756)" d="M113.78 683.5L408.33 683.5L408.33 683.5L408.33 684.004L408.33 684.004L113.78 684.004z" stroke="none" fill="#5B9BD5" fill-rule="evenodd" /><path id="45" transform="matrix(1 0 0 -1 0 756)" d="M113.78 626.14L408.33 626.14L408.33 626.14L408.33 626.62L408.33 626.62L113.78 626.62z" stroke="none" fill="#5B9BD5" fill-rule="evenodd" /></g></g></svg>